<?xml version="1.0" encoding="UTF-8"?>
<svg version="1.1" xmlns="http://www.w3.org/2000/svg" width="747" height="761">
<path d="M0 0 C9.94008781 7.15360418 15.63844666 16.78932675 18.3828125 28.71484375 C19.98735146 45.08006912 17.25847552 59.21886807 7.3828125 72.71484375 C5.8978125 73.20984375 5.8978125 73.20984375 4.3828125 73.71484375 C4.0528125 74.70484375 3.7228125 75.69484375 3.3828125 76.71484375 C1.81640625 78.22265625 1.81640625 78.22265625 -0.1796875 79.83984375 C-3.97514933 83.04670455 -7.18395943 86.50008874 -10.3671875 90.30859375 C-12.22055422 92.29066649 -14.05469118 93.97822736 -16.11483192 95.72892857 C-21.27547744 100.22059924 -26.08076127 105.04906318 -30.90487671 109.89573669 C-31.92483883 110.91669663 -32.94502592 111.93743186 -33.96541655 112.95796353 C-36.75051534 115.74469795 -39.53249708 118.53452562 -42.31396985 121.32487857 C-45.32089823 124.34027349 -48.33077727 127.35272056 -51.34033203 130.36549377 C-56.54842889 135.57987448 -61.7547985 140.79597452 -66.96009445 146.01315117 C-74.48717124 153.55722788 -82.01797901 161.09757165 -89.54988809 168.63682354 C-101.77261094 180.87147845 -113.99382502 193.10763903 -126.21337891 205.34545898 C-126.94402151 206.07719171 -127.67466411 206.80892443 -128.42744739 207.56283087 C-138.81402813 217.96504798 -149.19912508 228.3687452 -159.5836416 238.77302296 C-160.31610335 239.50687802 -161.0485651 240.24073308 -161.80322266 240.99682617 C-162.90057513 242.09626894 -162.90057513 242.09626894 -164.02009635 243.21792268 C-176.20054039 255.42136849 -188.38481645 267.62097988 -200.57226622 279.81742913 C-208.09096941 287.34199532 -215.60638702 294.86981418 -223.11766095 302.40179665 C-228.25646276 307.55426441 -233.3988254 312.70315977 -238.54405896 317.84920477 C-241.5159705 320.821823 -244.48618124 323.79609287 -247.45209122 326.77470016 C-250.16281249 329.49696598 -252.87802706 332.2146616 -255.59700914 334.9286759 C-256.58375131 335.91526581 -257.56877385 336.90357899 -258.55196445 337.89370828 C-259.88057825 339.23121838 -261.21587261 340.56208275 -262.55156517 341.89252377 C-263.29375876 342.63601887 -264.03595235 343.37951397 -264.80063665 344.14553922 C-266.6171875 345.71484375 -266.6171875 345.71484375 -268.6171875 345.71484375 C-268.87242187 346.2975 -269.12765625 346.88015625 -269.390625 347.48046875 C-270.73459837 349.92872598 -272.23529046 351.53227623 -274.2421875 353.46484375 C-274.87382812 354.0784375 -275.50546875 354.69203125 -276.15625 355.32421875 C-276.63835937 355.783125 -277.12046875 356.24203125 -277.6171875 356.71484375 C-276.06645237 360.58426451 -273.67330884 362.67109033 -270.56616211 365.39477539 C-263.02620874 372.13352897 -255.92603859 379.29225012 -248.79675484 386.46011162 C-246.3815117 388.88829868 -243.96300026 391.31318958 -241.54368591 393.73731995 C-236.41950598 398.87282679 -231.29931341 404.01229748 -226.1796875 409.15234375 C-220.21755763 415.13813011 -214.25377481 421.12225072 -208.28577995 427.10219002 C-205.90790382 429.48652741 -203.53306683 431.87386342 -201.15834045 434.26133728 C-199.70149276 435.72181712 -198.2445047 437.18215695 -196.78735352 438.64233398 C-196.13222778 439.30262604 -195.47710205 439.96291809 -194.80212402 440.64321899 C-191.5491371 443.89658051 -188.26122606 446.89256897 -184.6171875 449.71484375 C-183.6442056 450.7878752 -182.70258077 451.89073566 -181.8046875 453.02734375 C-179.68958732 455.58178993 -177.4960065 457.76829907 -174.96318054 459.90620422 C-170.39781609 463.85163272 -166.14458356 468.06117958 -161.89379883 472.34057617 C-161.06185501 473.17398026 -160.22991119 474.00738434 -159.37275696 474.86604309 C-157.57982565 476.66275896 -155.78804978 478.46062843 -153.99732399 480.25954247 C-151.1622835 483.10741493 -148.3241439 485.95216383 -145.48503113 488.79597473 C-139.46359585 494.82845431 -133.44642569 500.86517989 -127.4296875 506.90234375 C-120.92162331 513.43247389 -114.412806 519.96184325 -107.89910144 526.48634797 C-104.62674506 529.76446672 -101.35831199 533.04646695 -98.0905304 536.32914734 C-96.37796584 538.04534429 -94.66526081 539.76140107 -92.95239258 541.47729492 C-92.1787738 542.25608002 -91.40515503 543.03486511 -90.60809326 543.83724976 C-87.68688125 546.75874821 -84.84005492 549.53853533 -81.59623718 552.10469055 C-80.94315079 552.63604111 -80.29006439 553.16739166 -79.6171875 553.71484375 C-79.6171875 554.37484375 -79.6171875 555.03484375 -79.6171875 555.71484375 C-79.02237453 555.98447843 -78.42756157 556.2541131 -77.81472397 556.53191853 C-75.62115039 557.71271054 -74.2044059 558.88321947 -72.456604 560.64164734 C-71.5569693 561.53932579 -71.5569693 561.53932579 -70.63916016 562.45513916 C-69.99285645 563.11020447 -69.34655273 563.76526978 -68.68066406 564.44018555 C-67.99067322 565.13149063 -67.30068237 565.82279572 -66.58978271 566.53504944 C-64.30783146 568.82349539 -62.03293812 571.11883227 -59.7578125 573.4140625 C-58.1689471 575.009201 -56.57956366 576.60382364 -54.98968506 578.19795227 C-50.79966045 582.40128971 -46.61522805 586.61014681 -42.43237305 590.82061768 C-35.7529728 597.54308724 -29.06697058 604.25897264 -22.37755585 610.9714756 C-20.04877219 613.31042403 -17.72346863 615.65279077 -15.39849854 617.99552917 C-13.95621495 619.44464823 -12.51381763 620.8936541 -11.07128906 622.3425293 C-10.43308228 622.98747345 -9.79487549 623.6324176 -9.1373291 624.29690552 C-5.38045186 628.06310158 -1.50815778 631.62560511 2.54086685 635.07656574 C13.11026541 644.47728461 19.7376673 657.0434446 21.1953125 671.08984375 C21.89077355 683.83009838 18.60067164 696.17709861 10.2578125 706.02734375 C0.7065078 715.84703222 -9.93294863 720.6438125 -23.6171875 721.08984375 C-50.96367094 720.20081633 -67.54622259 698.93939185 -85.40608549 680.99440813 C-87.81940051 678.57097449 -90.23607734 676.15089827 -92.65249634 673.7305603 C-98.76873507 667.60331919 -104.88067765 661.47180105 -110.9921875 655.33984375 C-117.61457595 648.69535324 -124.23774927 642.05165508 -130.8658005 635.41281259 C-133.26287387 633.01159341 -135.65886456 630.60931426 -138.05234909 628.20451736 C-140.71544286 625.529449 -143.38157164 622.85743977 -146.04833984 620.18603516 C-146.83078064 619.39842804 -147.61322144 618.61082092 -148.41937256 617.79934692 C-151.56466975 614.65374655 -154.68029349 611.59474164 -158.15274048 608.81039429 C-158.966008 608.11886261 -159.77927551 607.42733093 -160.6171875 606.71484375 C-160.6171875 606.05484375 -160.6171875 605.39484375 -160.6171875 604.71484375 C-161.2359375 604.46734375 -161.8546875 604.21984375 -162.4921875 603.96484375 C-165.02077377 602.47744006 -165.33557754 601.27806366 -166.6171875 598.71484375 C-167.94773354 598.04263139 -169.28142828 597.37663642 -170.6171875 596.71484375 C-172.20983219 595.3655014 -172.20983219 595.3655014 -173.77345276 593.7923584 C-174.37202087 593.19509445 -174.97058899 592.59783051 -175.58729553 591.98246765 C-176.55450783 591.00211296 -176.55450783 591.00211296 -177.54125977 590.00195312 C-178.2295285 589.31237015 -178.91779724 588.62278717 -179.62692261 587.91230774 C-181.90044339 585.63229692 -184.16690921 583.34539919 -186.43359375 581.05859375 C-188.01201841 579.47389872 -189.5909593 577.88971773 -191.1703949 576.30603027 C-195.32781473 572.1353038 -199.47963348 567.95904948 -203.62988281 563.78118896 C-210.27549152 557.09247034 -216.9278121 550.41044369 -223.58338737 543.73164368 C-225.90959402 541.39519911 -228.23236551 539.05537871 -230.55482483 536.71520996 C-231.97727115 535.28593665 -233.39982685 533.85677219 -234.82250977 532.42773438 C-235.79275841 531.44737968 -235.79275841 531.44737968 -236.78260803 530.44721985 C-237.37835632 529.8499559 -237.97410461 529.25269196 -238.58790588 528.6373291 C-239.10352365 528.11819191 -239.61914141 527.59905472 -240.15038395 527.0641861 C-241.78305864 525.49225979 -241.78305864 525.49225979 -244.6171875 523.71484375 C-244.6171875 523.05484375 -244.6171875 522.39484375 -244.6171875 521.71484375 C-245.2771875 521.71484375 -245.9371875 521.71484375 -246.6171875 521.71484375 C-248.34486275 520.08704538 -249.98027635 518.43053845 -251.6171875 516.71484375 C-252.71944545 515.60521404 -253.82445372 514.49831205 -254.93167114 513.39363098 C-256.20332105 512.11896026 -257.47495717 510.84427578 -258.74658203 509.56958008 C-265.84065365 502.45918696 -272.93725858 495.35132775 -280.03531075 488.24490833 C-284.32613211 483.94885023 -288.61600657 479.65185502 -292.90380859 475.3527832 C-297.05707208 471.18867625 -301.2127545 467.02699769 -305.37014389 462.86701012 C-306.95388654 461.2814181 -308.53674797 459.69494539 -310.11871719 458.107584 C-312.32569487 455.8933751 -314.5357539 453.68228721 -316.74658203 451.47192383 C-317.40119415 450.81371643 -318.05580627 450.15550903 -318.73025513 449.47735596 C-319.33297241 448.87601334 -319.9356897 448.27467072 -320.55667114 447.65510559 C-321.07836443 447.13249051 -321.60005772 446.60987543 -322.13755989 446.07142353 C-323.78174943 444.49432548 -323.78174943 444.49432548 -326.6171875 442.71484375 C-326.6171875 442.05484375 -326.6171875 441.39484375 -326.6171875 440.71484375 C-327.47063499 440.34937187 -327.47063499 440.34937187 -328.34132385 439.97651672 C-331.03824412 438.48142214 -332.85621975 436.71560983 -335.03100586 434.52807617 C-335.89547836 433.66345261 -336.75995087 432.79882904 -337.65061951 431.90800476 C-338.57673538 430.97156631 -339.50285126 430.03512787 -340.45703125 429.0703125 C-341.425388 428.0982207 -342.39419089 427.12657316 -343.36341858 426.15534973 C-345.91243842 423.59870523 -348.4554027 421.03611954 -350.99713135 418.472229 C-353.57197511 415.87700362 -356.15240725 413.28734872 -358.73242188 410.69726562 C-363.28358225 406.12698723 -367.82979061 401.55182738 -372.37242126 396.97306824 C-374.00519918 395.33050118 -375.64825657 393.69813283 -377.29737854 392.07197571 C-386.00260768 383.22668967 -389.71754627 371.2194086 -390.83203125 359.1484375 C-390.21601186 349.30332763 -385.66784324 341.99578148 -380.19482422 334.02905273 C-379.00238764 332.29220083 -377.82991691 330.5431981 -376.66015625 328.79101562 C-369.68156155 318.42186434 -362.07355978 308.82983721 -353.05859375 300.14648438 C-350.35302837 297.51019898 -347.80492831 294.81287806 -345.34375 291.9453125 C-340.42142536 286.25163921 -335.00522313 281.0572548 -329.64453125 275.78125 C-328.84144531 274.98589844 -328.03835938 274.19054687 -327.2109375 273.37109375 C-326.13875977 272.31631836 -326.13875977 272.31631836 -325.04492188 271.24023438 C-323.05836607 269.17376885 -321.18000061 267.07473067 -319.30859375 264.90625 C-315.6990598 260.75115919 -311.87581445 256.86202582 -307.9609375 252.99609375 C-306.9019928 251.94282898 -306.9019928 251.94282898 -305.82165527 250.86828613 C-302.83821375 247.90100609 -299.8487804 244.93979012 -296.85986328 241.97802734 C-294.66228171 239.7986591 -292.46780812 237.61619428 -290.2734375 235.43359375 C-289.60969116 234.77814575 -288.94594482 234.12269775 -288.26208496 233.4473877 C-285.14742329 230.34886315 -282.14287856 227.2134515 -279.28125 223.87890625 C-274.88728664 218.78997458 -270.10911361 214.10150579 -265.3359375 209.37109375 C-264.35350372 208.39307956 -263.37137262 207.41476124 -262.38952637 206.43615723 C-258.77999432 202.83985391 -255.16498044 199.24907779 -251.55010986 195.65814209 C-248.48338 192.61128796 -245.41880836 189.56229249 -242.35694885 186.51054382 C-240.93727593 185.09725746 -239.51451751 183.68707264 -238.0916748 182.27697754 C-234.36558461 178.5649087 -230.68293531 174.86716693 -227.26757812 170.86523438 C-222.70446878 165.55055408 -217.68751167 160.67448226 -212.72006226 155.74255371 C-210.89206571 153.92748809 -209.06735794 152.10917074 -207.2434082 150.29003906 C-202.71562607 145.77552459 -198.18237943 141.26651038 -193.64929199 136.75732422 C-189.80752411 132.93538759 -185.96788048 129.11133999 -182.13095093 125.2845459 C-180.34563205 123.5056412 -178.55729611 121.72980979 -176.76879883 119.95410156 C-171.60229361 114.80907356 -166.51388092 109.67368692 -161.89770508 104.01660156 C-161.47513428 103.58702148 -161.05256348 103.15744141 -160.6171875 102.71484375 C-159.9571875 102.71484375 -159.2971875 102.71484375 -158.6171875 102.71484375 C-158.28726807 101.89645775 -158.28726807 101.89645775 -157.95068359 101.0615387 C-156.18654276 97.95699238 -153.80625101 95.64962673 -151.28125 93.16772461 C-150.73797058 92.62575943 -150.19469116 92.08379425 -149.63494873 91.52540588 C-147.84191754 89.73885446 -146.04202025 87.95938428 -144.2421875 86.1796875 C-142.99379555 84.93756769 -141.74591851 83.69493016 -140.49853516 82.45179749 C-137.21556529 79.18212369 -133.92707502 75.9180637 -130.63696289 72.65557861 C-125.36951388 67.43126628 -120.10877104 62.2002225 -114.85125732 56.96591377 C-113.01339603 55.13827803 -111.17216062 53.31409239 -109.33056641 51.49021912 C-108.20463744 50.37111805 -107.07881772 49.25190707 -105.953125 48.13256836 C-105.43981628 47.62599701 -104.92650757 47.11942566 -104.39764404 46.59750366 C-102.18209879 44.38908714 -100.36116009 42.33080264 -98.6171875 39.71484375 C-97.9571875 39.71484375 -97.2971875 39.71484375 -96.6171875 39.71484375 C-96.6171875 39.05484375 -96.6171875 38.39484375 -96.6171875 37.71484375 C-95.9571875 37.71484375 -95.2971875 37.71484375 -94.6171875 37.71484375 C-94.41262939 37.18793945 -94.20807129 36.66103516 -93.99731445 36.11816406 C-92.01341955 32.66345657 -89.32814073 30.08038402 -86.53515625 27.26171875 C-85.9251326 26.64266663 -85.31510895 26.0236145 -84.68659973 25.38580322 C-83.3905755 24.07527968 -82.09172799 22.76754304 -80.7902832 21.46240234 C-78.83738032 19.49773353 -76.90395714 17.51522935 -74.97070312 15.53125 C-54.92130108 -4.78045488 -26.40514581 -16.92743673 0 0 Z " fill="#FBA715" transform="translate(710.6171875,23.28515625)"/>
<path d="M0 0 C7.43786747 6.80947621 11.78340611 14.70863262 14.54296875 24.328125 C14.83107422 25.28912109 14.83107422 25.28912109 15.125 26.26953125 C18.05968174 40.72352448 13.17075255 54.25764027 5.54296875 66.328125 C2.34654205 70.27122369 -1.18439361 73.82115455 -4.81103516 77.36328125 C-5.83971588 78.39026408 -6.86706645 79.41858068 -7.89320374 80.44810486 C-10.65043671 83.20704092 -13.4256115 85.94723265 -16.20468569 88.68414307 C-19.12401833 91.56560826 -22.02602684 94.46442209 -24.93002319 97.36132812 C-30.42257696 102.8353195 -35.93021897 108.29385877 -41.44362772 113.74683571 C-47.70518056 119.94123291 -53.94963968 126.15274123 -60.19271588 132.36575127 C-70.86507004 142.98612991 -81.54981226 153.59390611 -92.24925232 164.18699646 C-93.1294957 165.05856888 -94.00973907 165.9301413 -94.91665649 166.828125 C-95.67726191 167.5809375 -96.43786732 168.33375 -97.22152138 169.109375 C-101.24187388 173.09958646 -105.19619845 177.09056691 -108.95703125 181.328125 C-116.7532269 190.02785326 -116.7532269 190.02785326 -120.83203125 193.140625 C-123.07048914 195.00600657 -124.76991437 196.774882 -126.64526367 198.97851562 C-130.29483808 203.19041799 -134.13398497 207.16638579 -138.0703125 211.109375 C-138.76593796 211.80832886 -139.46156342 212.50728271 -140.17826843 213.22741699 C-141.63324817 214.68741704 -143.08954612 216.14610454 -144.54711914 217.60351562 C-146.78625236 219.84486265 -149.01723403 222.09412514 -151.24804688 224.34375 C-152.66748018 225.76611273 -154.08738488 227.18800523 -155.5078125 228.609375 C-156.17549149 229.2842395 -156.84317047 229.959104 -157.53108215 230.65441895 C-158.14900131 231.26926147 -158.76692047 231.884104 -159.40356445 232.51757812 C-159.94648636 233.06192505 -160.48940826 233.60627197 -161.04878235 234.16711426 C-162.45703125 235.328125 -162.45703125 235.328125 -164.45703125 235.328125 C-164.78703125 236.318125 -165.11703125 237.308125 -165.45703125 238.328125 C-166.11703125 238.328125 -166.77703125 238.328125 -167.45703125 238.328125 C-167.67488281 238.86824219 -167.89273438 239.40835938 -168.1171875 239.96484375 C-174.94668617 252.01104403 -189.46337614 261.53916693 -202.45703125 265.328125 C-214.20222162 267.82788383 -224.42495381 264.60495183 -234.45703125 258.328125 C-243.27391806 251.66069662 -250.13537966 240.47571328 -252.24609375 229.5 C-253.61533203 215.40191699 -251.88385302 202.02218819 -243.45703125 190.328125 C-235.0840366 180.37704258 -225.57226905 171.32005703 -216.30541992 162.21240234 C-213.07433549 159.02412674 -209.9540121 155.80453486 -206.9921875 152.36328125 C-202.53377085 147.18778103 -197.64389293 142.46692117 -192.7734375 137.68359375 C-189.38821415 134.33509977 -186.09257867 130.97151831 -182.98828125 127.359375 C-178.33756926 121.95391889 -173.21013629 117.035037 -168.12890625 112.0390625 C-164.64687395 108.59256114 -161.2385625 105.14408947 -158.05078125 101.421875 C-152.79423208 95.30538346 -146.9343136 89.76329586 -141.1953125 84.10546875 C-140.30199219 83.21988281 -139.40867187 82.33429688 -138.48828125 81.421875 C-137.68970703 80.63490234 -136.89113281 79.84792969 -136.06835938 79.03710938 C-134.00795617 76.89965295 -132.05883148 74.73744201 -130.12109375 72.4921875 C-126.52173982 68.34521672 -122.70654343 64.46630627 -118.80078125 60.609375 C-117.74183655 59.55611023 -117.74183655 59.55611023 -116.66149902 58.48156738 C-113.6780575 55.51428734 -110.68862415 52.55307137 -107.69970703 49.59130859 C-105.50212546 47.41194035 -103.30765187 45.22947553 -101.11328125 43.046875 C-100.44953491 42.391427 -99.78578857 41.735979 -99.10192871 41.06066895 C-95.27729775 37.25585348 -91.66259876 33.33466552 -88.13760376 29.25137329 C-83.86881767 24.36617167 -79.28334028 19.76942072 -74.73510742 15.14624023 C-73.51327224 13.89782581 -72.29864952 12.64230931 -71.09155273 11.37963867 C-51.78913873 -8.79549786 -24.35211049 -18.97567051 0 0 Z " fill="#FAB01C" transform="translate(407.45703125,42.671875)"/>
<path d="M0 0 C7.29604501 5.26156415 13.38951301 12.19469729 19.65063477 18.60668945 C21.09890673 20.0750718 22.54811929 21.54252704 23.99829102 23.0090332 C27.18543431 26.23510162 30.36356264 29.46974101 33.53353882 32.712677 C37.67903118 36.92221989 41.90411287 41.00761716 46.2722168 44.98536682 C53.14020687 51.28696806 59.75113022 57.82225157 66.33032227 64.42285156 C67.57512755 65.66793986 68.82015494 66.91280614 70.06538391 68.1574707 C73.4038615 71.49566463 76.73927425 74.83690496 80.07409286 78.17875361 C83.58126734 81.69224086 87.09133298 85.2028375 90.60107422 88.71376038 C97.23365089 95.34942977 103.86367824 101.98764013 110.49276257 108.62679821 C118.02716617 116.17240267 125.56442801 123.7151493 133.10192871 131.25765979 C145.98294596 144.1473367 158.86185768 157.03911416 171.73835754 169.93330383 C172.28133043 170.47701632 172.82430332 171.0207288 173.38372993 171.58091742 C174.82694205 173.02611174 176.27012364 174.47133656 177.71330261 175.91656399 C178.55887222 176.76305539 179.40444183 177.60954679 180.27563477 178.48168945 C181.17337112 179.38464028 182.07110748 180.28759111 182.99604797 181.21790409 C184.32042975 182.53310564 185.67184039 183.82398373 187.08422852 185.04418945 C195.59074289 192.55113739 199.6379934 204.18075819 200.49047852 215.27856445 C200.96519314 229.93775214 196.12313905 241.90291275 186.25219727 252.6652832 C177.02807321 261.141998 165.57632729 264.43515468 153.27563477 264.48168945 C138.74471494 263.76768675 127.27863193 256.56483884 117.27563477 246.48168945 C115.88344727 245.12624023 115.88344727 245.12624023 114.46313477 243.7434082 C110.48316735 239.84439154 106.61121298 235.89700283 102.97485352 231.6730957 C99.11610594 227.22585896 94.9745704 223.10550996 90.77563477 218.98168945 C86.69446445 214.97352755 82.65211737 210.98706852 78.93188477 206.63793945 C74.34052947 201.30147278 69.28484933 196.42039899 64.27563477 191.48168945 C58.6266204 185.91218534 53.04546367 180.34653705 47.88500977 174.3137207 C45.16634163 171.21892615 42.21975036 168.36008818 39.27563477 165.48168945 C35.71923387 162.00467251 32.26009924 158.51293244 29.02563477 154.73168945 C24.39658104 149.36901338 19.31658706 144.45169001 14.27563477 139.48168945 C3.61980455 128.97584077 3.61980455 128.97584077 -0.19311523 124.51293945 C-4.88246294 119.03086868 -10.09282449 114.0444384 -15.22436523 108.98168945 C-26.41645172 97.93964051 -26.41645172 97.93964051 -30.16577148 93.51293945 C-33.11063928 90.06003116 -36.31402048 86.92267302 -39.59545898 83.79418945 C-62.35689578 62.01604534 -62.35689578 62.01604534 -66.72436523 48.48168945 C-67.09948242 47.35375977 -67.47459961 46.22583008 -67.86108398 45.0637207 C-70.67069769 33.40573078 -69.44790849 20.6796931 -63.43920898 10.2512207 C-57.42288063 1.58703753 -49.80824836 -4.4356727 -39.72436523 -7.51831055 C-39.12237305 -7.7090918 -38.52038086 -7.89987305 -37.90014648 -8.09643555 C-24.20230376 -10.75239069 -11.56640566 -7.49321883 0 0 Z " fill="#FAA007" transform="translate(222.724365234375,465.518310546875)"/>
<path d="M0 0 C0.88386446 -0.00172683 1.76772892 -0.00345366 2.67837715 -0.00523281 C5.63936306 -0.00960328 8.60029256 -0.00662166 11.5612793 -0.00341797 C13.67220579 -0.004477 15.78313214 -0.00586284 17.89405823 -0.0075531 C23.61440815 -0.01037745 29.33473049 -0.00592834 35.0550766 0.0006218 C38.6363478 0.00439543 42.21761638 0.00646149 45.79888916 0.00808716 C111.97648137 0.04344762 178.16186767 0.59122367 244.32299805 2.12939453 C243.17360672 5.12847711 241.96722357 7.91612967 240.29956055 10.66064453 C235.36415066 18.97605606 231.56884374 26.651391 229.32299805 36.12939453 C229.13350586 36.89251953 228.94401367 37.65564453 228.7487793 38.44189453 C225.47495066 59.10606061 231.30100296 77.49640474 242.0690918 94.96142578 C243.32299805 97.12939453 243.32299805 97.12939453 243.32299805 99.12939453 C198.1045324 99.19487529 152.89008595 99.05244442 107.67270827 98.74055421 C102.00390703 98.70175107 96.33509125 98.66615572 90.66625977 98.63208008 C71.1091934 98.51397319 51.55266979 98.3705635 31.99629211 98.16684723 C28.59296505 98.1321471 25.18962418 98.10119218 21.78625488 98.07098389 C17.28980543 98.02867312 12.79417589 97.96696788 8.29830551 97.88340569 C6.80891192 97.85799395 5.31939807 97.83863438 3.8298378 97.82641792 C-10.33807776 97.69972399 -22.89506689 93.69534279 -33.42700195 83.87939453 C-37.28504769 79.7399384 -40.0946133 75.14533099 -42.67700195 70.12939453 C-43.09336914 69.34306641 -43.50973633 68.55673828 -43.9387207 67.74658203 C-48.59126884 57.3314041 -48.37907331 43.39226969 -45.11450195 32.56689453 C-38.66213394 16.57133885 -28.13865448 7.77232121 -12.67700195 1.12939453 C-8.47641922 -0.10921148 -4.34543571 -0.01064121 0 0 Z " fill="#FAA718" transform="translate(63.677001953125,332.87060546875)"/>
<path d="M0 0 C32.68006263 -0.15264473 65.32843734 0.25486435 98 1 C97.67 1.66 97.34 2.32 97 3 C95.83130371 2.99476318 94.66260742 2.98952637 93.45849609 2.98413086 C89.05632312 2.96581252 84.65415341 2.95447156 80.25195312 2.94506836 C78.35904369 2.94008871 76.46613799 2.93330257 74.57324219 2.92456055 C56.54482602 2.13136403 56.54482602 2.13136403 39 5 C38.01 4.67 37.02 4.34 36 4 C36 3.34 36 2.68 36 2 C24.12 1.67 12.24 1.34 0 1 C0 0.67 0 0.34 0 0 Z " fill="#A57F22" transform="translate(210,334)"/>
<path d="M0 0 C0.66 0.99 1.32 1.98 2 3 C1.01 3.66 0.02 4.32 -1 5 C-1 5.99 -1 6.98 -1 8 C-2.43359375 9.5078125 -2.43359375 9.5078125 -4.4375 11.125 C-7.69033893 13.84146655 -10.71789159 16.66308338 -13.6875 19.6875 C-20.04269837 26.08645189 -20.04269837 26.08645189 -23 28 C-23.99 27.67 -24.98 27.34 -26 27 C-25.39003174 26.39526855 -24.78006348 25.79053711 -24.15161133 25.16748047 C-21.86650636 22.89952736 -19.58374441 20.62924782 -17.30249023 18.35742188 C-16.31903271 17.37895979 -15.33467541 16.40140113 -14.34936523 15.42480469 C-6.85165235 8.00470612 -6.85165235 8.00470612 0 0 Z " fill="#D8A123" transform="translate(319,72)"/>
<path d="M0 0 C0.74765625 0.27714844 1.4953125 0.55429687 2.265625 0.83984375 C3.74289062 1.38318359 3.74289062 1.38318359 5.25 1.9375 C6.22453125 2.29714844 7.1990625 2.65679688 8.203125 3.02734375 C10.46457161 3.81379655 12.66796552 4.47251601 15 5 C15 5.66 15 6.32 15 7 C20.94 7 26.88 7 33 7 C33.33 6.34 33.66 5.68 34 5 C36.475 5.495 36.475 5.495 39 6 C29.81739486 11.1014473 18.51014953 9.60904112 8.78125 6.93359375 C4.93727774 5.6432716 1.53896951 3.97365607 -2 2 C-1.34 1.34 -0.68 0.68 0 0 Z " fill="#B56C0C" transform="translate(663,735)"/>
<path d="M0 0 C5.25174926 4.38442526 10.13222473 9.00842093 14.9375 13.875 C15.62134766 14.56335938 16.30519531 15.25171875 17.00976562 15.9609375 C18.67551464 17.63833511 20.3388622 19.31803791 22 21 C21.34 21.66 20.68 22.32 20 23 C17.32529045 20.38308836 14.66165519 17.75518292 12 15.125 C10.8553125 14.00544922 10.8553125 14.00544922 9.6875 12.86328125 C8.965625 12.14785156 8.24375 11.43242188 7.5 10.6953125 C6.8296875 10.03547363 6.159375 9.37563477 5.46875 8.69580078 C4 7 4 7 4 5 C2.68 4.67 1.36 4.34 0 4 C0 2.68 0 1.36 0 0 Z " fill="#CF8014" transform="translate(590,538)"/>
<path d="M0 0 C0.92900148 3.43358947 1.23296968 6.42779828 1 10 C0.34 10.66 -0.32 11.32 -1 12 C-1.27714896 14.13252093 -1.27714896 14.13252093 -1.1953125 16.5703125 C-1.18886719 17.46621094 -1.18242187 18.36210937 -1.17578125 19.28515625 C-1.15902344 20.22230469 -1.14226563 21.15945313 -1.125 22.125 C-1.11597656 23.06988281 -1.10695313 24.01476562 -1.09765625 24.98828125 C-1.07404522 27.32577292 -1.04111516 29.66276123 -1 32 C-0.34 32.33 0.32 32.66 1 33 C0.67 33.66 0.34 34.32 0 35 C0.66 35.33 1.32 35.66 2 36 C1.34 36.99 0.68 37.98 0 39 C-2.55165679 32.57435859 -3.48633817 26.95751357 -3.375 20.0625 C-3.36919922 19.18948242 -3.36339844 18.31646484 -3.35742188 17.41699219 C-3.23337332 11.26280545 -2.51335238 5.68496371 0 0 Z " fill="#A46E18" transform="translate(20,362)"/>
<path d="M0 0 C0.33 0.66 0.66 1.32 1 2 C-1.74546106 6.2707172 -4.58931014 10.23029015 -8 14 C-8.66 14 -9.32 14 -10 14 C-10 14.66 -10 15.32 -10 16 C-11.65 16 -13.3 16 -15 16 C-10.30233025 10.33870569 -5.25276628 5.14771096 0 0 Z " fill="#C4911E" transform="translate(449,229)"/>
<path d="M0 0 C0.66 0.33 1.32 0.66 2 1 C1.49821009 5.3488459 -1.09697538 7.89443878 -4 11 C-6.34086181 12.44582641 -8.37311048 13.12437016 -11 14 C-9.61085525 9.70281047 -7.61968015 7.29312243 -4.375 4.1875 C-3.55773437 3.39730469 -2.74046875 2.60710937 -1.8984375 1.79296875 C-0.95871094 0.90544922 -0.95871094 0.90544922 0 0 Z " fill="#DEA318" transform="translate(170,464)"/>
<path d="M0 0 C13.53 0 27.06 0 41 0 C40.01 0.33 39.02 0.66 38 1 C38 1.66 38 2.32 38 3 C37.236875 2.814375 36.47375 2.62875 35.6875 2.4375 C32.91032625 1.77180827 32.91032625 1.77180827 30 3 C29.34 2.67 28.68 2.34 28 2 C25.89625004 1.84558791 23.78804881 1.75007361 21.6796875 1.68359375 C20.42285156 1.64169922 19.16601562 1.59980469 17.87109375 1.55664062 C16.55238281 1.51732422 15.23367188 1.47800781 13.875 1.4375 C12.53514249 1.39430488 11.19529844 1.35069027 9.85546875 1.30664062 C6.57042185 1.20029019 3.28529719 1.09826192 0 1 C0 0.67 0 0.34 0 0 Z " fill="#FCCA23" transform="translate(266,336)"/>
<path d="M0 0 C0.66 0.99 1.32 1.98 2 3 C0.92807816 4.3218362 -0.15802695 5.63217927 -1.25 6.9375 C-1.85328125 7.66839844 -2.4565625 8.39929688 -3.078125 9.15234375 C-5.10741134 11.10326334 -6.254407 11.61731779 -9 12 C-9 12.66 -9 13.32 -9 14 C-10.32 13.67 -11.64 13.34 -13 13 C-12.0479279 11.99403703 -11.08812654 10.99538437 -10.125 10 C-9.32449219 9.1646875 -9.32449219 9.1646875 -8.5078125 8.3125 C-7 7 -7 7 -5 7 C-4.731875 6.401875 -4.46375 5.80375 -4.1875 5.1875 C-3.01506533 3.02775192 -1.80630718 1.64209744 0 0 Z " fill="#BF8D20" transform="translate(557,119)"/>
<path d="M0 0 C1.32 0 2.64 0 4 0 C2.67879172 2.93230193 1.25361803 4.98664899 -1.0390625 7.234375 C-1.90917969 8.09482422 -1.90917969 8.09482422 -2.796875 8.97265625 C-3.40015625 9.55917969 -4.0034375 10.14570312 -4.625 10.75 C-5.23601562 11.35199219 -5.84703125 11.95398438 -6.4765625 12.57421875 C-7.97988624 14.05405305 -9.48934856 15.52764676 -11 17 C-11.33 16.01 -11.66 15.02 -12 14 C-9.11199492 10.00775768 -6.05558172 6.84986823 -2 4 C-1.34 4 -0.68 4 0 4 C0 2.68 0 1.36 0 0 Z " fill="#CA961E" transform="translate(409,107)"/>
<path d="M0 0 C0.66 1.32 1.32 2.64 2 4 C1.67 4 1.34 4 1 4 C0.86722656 4.62648438 0.73445312 5.25296875 0.59765625 5.8984375 C0.33275391 7.12433594 0.33275391 7.12433594 0.0625 8.375 C-0.11152344 9.18710937 -0.28554687 9.99921875 -0.46484375 10.8359375 C-1 13 -1 13 -2 15 C-2.23029956 17.37123246 -2.41119942 19.74741943 -2.5625 22.125 C-2.64628906 23.40632813 -2.73007813 24.68765625 -2.81640625 26.0078125 C-2.90728516 27.48894531 -2.90728516 27.48894531 -3 29 C-3.33 29 -3.66 29 -4 29 C-4.44651892 18.53161189 -4.23738016 9.8178585 0 0 Z " fill="#BC8D19" transform="translate(158,478)"/>
<path d="M0 0 C1.3003418 -0.00193359 1.3003418 -0.00193359 2.62695312 -0.00390625 C3.97370117 0.00189453 3.97370117 0.00189453 5.34765625 0.0078125 C6.24162109 0.00394531 7.13558594 0.00007812 8.05664062 -0.00390625 C12.29729722 0.0023902 16.27854922 0.04600147 20.41015625 1.1328125 C20.41015625 1.4628125 20.41015625 1.7928125 20.41015625 2.1328125 C19.74894775 2.12757568 19.08773926 2.12233887 18.40649414 2.11694336 C15.42855774 2.09623594 12.45063643 2.08317238 9.47265625 2.0703125 C8.43173828 2.06193359 7.39082031 2.05355469 6.31835938 2.04492188 C5.32900391 2.04169922 4.33964844 2.03847656 3.3203125 2.03515625 C2.40386963 2.02991943 1.48742676 2.02468262 0.54321289 2.01928711 C-1.57347398 1.89360039 -1.57347398 1.89360039 -2.58984375 3.1328125 C-4.27593341 3.20486761 -5.96485034 3.21667318 -7.65234375 3.1953125 C-8.57144531 3.18628906 -9.49054687 3.17726563 -10.4375 3.16796875 C-11.14777344 3.15636719 -11.85804688 3.14476562 -12.58984375 3.1328125 C-8.35479065 0.86403405 -4.79859065 0.00689382 0 0 Z " fill="#B58D26" transform="translate(677.58984375,15.8671875)"/>
<path d="M0 0 C0.33 0.66 0.66 1.32 1 2 C-0.11733729 3.50571657 -1.24410035 5.00444292 -2.375 6.5 C-3.31472656 7.75296875 -3.31472656 7.75296875 -4.2734375 9.03125 C-4.84320313 9.6809375 -5.41296875 10.330625 -6 11 C-6.66 11 -7.32 11 -8 11 C-8.66 12.32 -9.32 13.64 -10 15 C-10.99 14.34 -11.98 13.68 -13 13 C-8.71 8.71 -4.42 4.42 0 0 Z " fill="#C7911D" transform="translate(265,128)"/>
<path d="M0 0 C0.99 0 1.98 0 3 0 C2.34 1.32 1.68 2.64 1 4 C0.01 4 -0.98 4 -2 4 C-2.10183594 4.59296875 -2.20367187 5.1859375 -2.30859375 5.796875 C-3.11355652 8.36184111 -4.11566902 9.42743483 -6.0625 11.25 C-6.61035156 11.77078125 -7.15820312 12.2915625 -7.72265625 12.828125 C-8.14417969 13.21484375 -8.56570313 13.6015625 -9 14 C-9.99 13.67 -10.98 13.34 -12 13 C-11.46890625 12.48050781 -10.9378125 11.96101563 -10.390625 11.42578125 C-7.30464386 8.37921958 -4.33889898 5.43965273 -1.6875 2 C-1.130625 1.34 -0.57375 0.68 0 0 Z " fill="#DEAB1B" transform="translate(392,287)"/>
<path d="M0 0 C0.33 1.32 0.66 2.64 1 4 C-0.43359375 6.140625 -0.43359375 6.140625 -2.4375 8.25 C-3.09621094 8.95640625 -3.75492187 9.6628125 -4.43359375 10.390625 C-4.95050781 10.92171875 -5.46742188 11.4528125 -6 12 C-7.32 11.34 -8.64 10.68 -10 10 C-6.7 6.7 -3.4 3.4 0 0 Z " fill="#CC9925" transform="translate(330,61)"/>
<path d="M0 0 C0.66 0.99 1.32 1.98 2 3 C0.92643323 4.15498897 -0.15929788 5.29867867 -1.25 6.4375 C-1.85328125 7.07558594 -2.4565625 7.71367187 -3.078125 8.37109375 C-5.10048016 10.08516306 -6.41270605 10.59358878 -9 11 C-8.06558465 9.72689688 -7.12732889 8.456612 -6.1875 7.1875 C-5.66542969 6.47980469 -5.14335937 5.77210938 -4.60546875 5.04296875 C-3.16871123 3.21468607 -1.68184237 1.60103312 0 0 Z M3 0 C3.33 0.66 3.66 1.32 4 2 C3.34 1.67 2.68 1.34 2 1 C2.33 0.67 2.66 0.34 3 0 Z " fill="#D1941D" transform="translate(175,221)"/>
<path d="M0 0 C3.68069887 1.53643852 5.98775204 3.78150945 8.75 6.625 C9.54921875 7.44226563 10.3484375 8.25953125 11.171875 9.1015625 C12.07679688 10.04128906 12.07679688 10.04128906 13 11 C12.34 11.66 11.68 12.32 11 13 C9.16052663 11.21427748 7.32842259 9.42197551 5.5 7.625 C4.71302734 6.86316406 4.71302734 6.86316406 3.91015625 6.0859375 C2.56846819 4.76167396 1.28004185 3.38394135 0 2 C0 1.34 0 0.68 0 0 Z " fill="#DBA117" transform="translate(401,480)"/>
<path d="M0 0 C0.71484375 1.765625 0.71484375 1.765625 1 4 C-0.43359375 5.921875 -0.43359375 5.921875 -2.4375 7.75 C-3.09621094 8.36359375 -3.75492188 8.9771875 -4.43359375 9.609375 C-4.95050781 10.06828125 -5.46742188 10.5271875 -6 11 C-6.99 10.67 -7.98 10.34 -9 10 C-7.8758824 8.70756532 -6.75067408 7.41607925 -5.625 6.125 C-4.99851563 5.40570313 -4.37203125 4.68640625 -3.7265625 3.9453125 C-2.52573166 2.5923402 -1.2791655 1.2791655 0 0 Z " fill="#C98F1F" transform="translate(206,189)"/>
<path d="M0 0 C0.73046875 1.73828125 0.73046875 1.73828125 1 4 C-0.51171875 6.10546875 -0.51171875 6.10546875 -2.6875 8.1875 C-3.74517578 9.22970703 -3.74517578 9.22970703 -4.82421875 10.29296875 C-6.97612297 11.98126703 -8.33004812 12.59619238 -11 13 C-10.62488281 12.56429688 -10.24976563 12.12859375 -9.86328125 11.6796875 C-6.54140223 7.81392401 -3.25357073 3.92342352 0 0 Z " fill="#D4A621" transform="translate(366,314)"/>
<path d="M0 0 C0.33 0 0.66 0 1 0 C1.05865035 3.18742115 1.09381259 6.37470118 1.125 9.5625 C1.14175781 10.45775391 1.15851562 11.35300781 1.17578125 12.27539062 C1.21479596 17.60089905 0.75475782 21.96370689 -1 27 C-2.125 25.3125 -2.125 25.3125 -3 23 C-2.55140625 21.9790625 -2.55140625 21.9790625 -2.09375 20.9375 C-0.58037245 16.87300029 -0.53809413 12.99250549 -0.375 8.6875 C-0.33632813 7.85154297 -0.29765625 7.01558594 -0.2578125 6.15429688 C-0.16404841 4.10320741 -0.08095755 2.05163485 0 0 Z " fill="#C28F21" transform="translate(728,52)"/>
<path d="M0 0 C3.67758005 3.28355362 5.81389118 6.62778237 8 11 C7.67 11.66 7.34 12.32 7 13 C0.61538462 6.61538462 0.61538462 6.61538462 -1 4 C-0.6875 1.75 -0.6875 1.75 0 0 Z " fill="#CA9C25" transform="translate(411,47)"/>
<path d="M0 0 C0.66 0.99 1.32 1.98 2 3 C-2.625 7.875 -2.625 7.875 -6 9 C-6.33 9.66 -6.66 10.32 -7 11 C-7.66 10.67 -8.32 10.34 -9 10 C-7.8758824 8.70756532 -6.75067408 7.41607925 -5.625 6.125 C-4.99851563 5.40570313 -4.37203125 4.68640625 -3.7265625 3.9453125 C-2.52573166 2.5923402 -1.2791655 1.2791655 0 0 Z " fill="#C08A1E" transform="translate(230,164)"/>
<path d="M0 0 C-1.47721422 3.45201639 -3.43794001 5.64961936 -6.125 8.25 C-6.84945312 8.95640625 -7.57390625 9.6628125 -8.3203125 10.390625 C-8.87460937 10.92171875 -9.42890625 11.4528125 -10 12 C-10.33 11.01 -10.66 10.02 -11 9 C-9.54782324 7.49403892 -8.08807139 5.99537896 -6.625 4.5 C-5.40683594 3.24703125 -5.40683594 3.24703125 -4.1640625 1.96875 C-2 0 -2 0 0 0 Z " fill="#D5991B" transform="translate(655,156)"/>
<path d="M0 0 C3.21524305 1.40844718 5.32183868 3.10344786 7.75 5.625 C8.67039062 6.57246094 8.67039062 6.57246094 9.609375 7.5390625 C10.29773438 8.26222656 10.29773438 8.26222656 11 9 C10.34 9.66 9.68 10.32 9 11 C7.49403892 9.54782324 5.99537896 8.08807139 4.5 6.625 C3.6646875 5.81289063 2.829375 5.00078125 1.96875 4.1640625 C0 2 0 2 0 0 Z " fill="#D78915" transform="translate(601,550)"/>
<path d="M0 0 C1 3 1 3 1 5 C-0.53125 6.5078125 -0.53125 6.5078125 -2.5 8.125 C-3.1496875 8.66382813 -3.799375 9.20265625 -4.46875 9.7578125 C-4.9740625 10.16773438 -5.479375 10.57765625 -6 11 C-6.33 10.01 -6.66 9.02 -7 8 C-5.56640625 5.95703125 -5.56640625 5.95703125 -3.5625 3.8125 C-2.90378906 3.09707031 -2.24507813 2.38164062 -1.56640625 1.64453125 C-1.04949219 1.10183594 -0.53257812 0.55914062 0 0 Z " fill="#C8951E" transform="translate(433,245)"/>
<path d="M0 0 C0.66 0.33 1.32 0.66 2 1 C0.78258021 2.46815389 -0.44948761 3.92416847 -1.6875 5.375 C-2.37199219 6.18710937 -3.05648438 6.99921875 -3.76171875 7.8359375 C-6.09861313 10.09534323 -7.9302743 11.02155853 -11 12 C-7.49102731 7.81576108 -3.91939465 3.80411834 0 0 Z " fill="#D7A522" transform="translate(349,42)"/>
<path d="M0 0 C0.66 0 1.32 0 2 0 C0.90301833 5.69139902 -0.54053077 10.74567937 -3 16 C-3.33 16 -3.66 16 -4 16 C-3.39891424 10.34979382 -1.92471317 5.33835539 0 0 Z " fill="#C26D0F" transform="translate(729,706)"/>
<path d="M0 0 C7.48291572 6.15034169 7.48291572 6.15034169 10 10 C8.35 9.67 6.7 9.34 5 9 C5 8.01 5 7.02 5 6 C3.68 5.67 2.36 5.34 1 5 C0.67 3.35 0.34 1.7 0 0 Z " fill="#BF6E10" transform="translate(654,601)"/>
<path d="M0 0 C2.475 0.99 2.475 0.99 5 2 C5 2.66 5 3.32 5 4 C5.66 4 6.32 4 7 4 C8.625 6.5 8.625 6.5 10 9 C7 9 7 9 5.17578125 7.5390625 C4.56089844 6.90742188 3.94601562 6.27578125 3.3125 5.625 C2.68988281 4.99851562 2.06726563 4.37203125 1.42578125 3.7265625 C0 2 0 2 0 0 Z " fill="#CC9D1D" transform="translate(353,433)"/>
<path d="M0 0 C0.33 0.66 0.66 1.32 1 2 C0.21072301 3.12667784 -0.58151655 4.25128067 -1.375 5.375 C-1.81585938 6.00148438 -2.25671875 6.62796875 -2.7109375 7.2734375 C-4 9 -4 9 -6 11 C-6.99 10.67 -7.98 10.34 -9 10 C-6.03 6.7 -3.06 3.4 0 0 Z " fill="#D0A422" transform="translate(354,327)"/>
<path d="M0 0 C0.33 1.32 0.66 2.64 1 4 C0.01 4.495 0.01 4.495 -1 5 C-1 5.66 -1 6.32 -1 7 C-2.98 7.99 -2.98 7.99 -5 9 C-5.66 8.34 -6.32 7.68 -7 7 C-4.69 4.69 -2.38 2.38 0 0 Z " fill="#D1991E" transform="translate(457,221)"/>
<path d="M0 0 C0.66 0.99 1.32 1.98 2 3 C-2.75 7.875 -2.75 7.875 -5 9 C-5.66 8.34 -6.32 7.68 -7 7 C-4.69 4.69 -2.38 2.38 0 0 Z " fill="#D3951F" transform="translate(238,156)"/>
<path d="M0 0 C0.66 0 1.32 0 2 0 C1.51675181 5.15464734 -1.18610761 8.81550319 -4 13 C-4.625 11.1875 -4.625 11.1875 -5 9 C-4.34 8.01 -3.68 7.02 -3 6 C-2.34 6 -1.68 6 -1 6 C-0.67 4.02 -0.34 2.04 0 0 Z " fill="#CA9720" transform="translate(723,81)"/>
<path d="M0 0 C1.32 0.33 2.64 0.66 4 1 C1.69 3.31 -0.62 5.62 -3 8 C-3.66 7.67 -4.32 7.34 -5 7 C-4.34 5.68 -3.68 4.36 -3 3 C-2.34 3 -1.68 3 -1 3 C-0.67 2.01 -0.34 1.02 0 0 Z " fill="#D6961A" transform="translate(368,149)"/>
<path d="M0 0 C1.14926266 0.95421808 2.29430541 1.91352045 3.4375 2.875 C4.07558594 3.40867187 4.71367188 3.94234375 5.37109375 4.4921875 C7 6 7 6 8 8 C4.32579134 7.69381595 3.21864487 7.24228216 0.6875 4.4375 C0.130625 3.633125 -0.42625 2.82875 -1 2 C-0.67 1.34 -0.34 0.68 0 0 Z " fill="#C47815" transform="translate(575,523)"/>
<path d="M0 0 C1.12894876 0.93274109 2.25300876 1.87140122 3.375 2.8125 C4.00148437 3.33457031 4.62796875 3.85664063 5.2734375 4.39453125 C7 6 7 6 9 9 C6 9 6 9 4.39453125 7.79296875 C3.87246094 7.26316406 3.35039062 6.73335938 2.8125 6.1875 C2.01779297 5.40439453 2.01779297 5.40439453 1.20703125 4.60546875 C0 3 0 3 0 0 Z " fill="#D59B14" transform="translate(239,482)"/>
<path d="M0 0 C0 3.77910478 -0.99703962 4.46106101 -3.5 7.1875 C-4.1496875 7.90292969 -4.799375 8.61835938 -5.46875 9.35546875 C-5.9740625 9.89816406 -6.479375 10.44085938 -7 11 C-7.99 10.67 -8.98 10.34 -10 10 C-6.7 6.7 -3.4 3.4 0 0 Z " fill="#DAA01D" transform="translate(480,198)"/>
<path d="M0 0 C0.66 0.33 1.32 0.66 2 1 C-2.455 3.97 -2.455 3.97 -7 7 C-7.99 6.34 -8.98 5.68 -10 5 C-8.38007835 4.13624104 -6.75388139 3.28424146 -5.125 2.4375 C-4.22007812 1.96183594 -3.31515625 1.48617188 -2.3828125 0.99609375 C-1.20332031 0.50302734 -1.20332031 0.50302734 0 0 Z " fill="#C09320" transform="translate(663,19)"/>
<path d="M0 0 C1.14926266 0.95421808 2.29430541 1.91352045 3.4375 2.875 C4.07558594 3.40867187 4.71367187 3.94234375 5.37109375 4.4921875 C7 6 7 6 8 8 C6.35 7.67 4.7 7.34 3 7 C3 6.34 3 5.68 3 5 C2.01 4.67 1.02 4.34 0 4 C0 2.68 0 1.36 0 0 Z " fill="#B28015" transform="translate(275,517)"/>
<path d="M0 0 C2.37948772 0.17625835 3.70225849 0.69719773 5.37890625 2.40234375 C6.62115486 3.90649092 7.81376056 5.45129851 9 7 C8.01 7.33 7.02 7.66 6 8 C4.9970458 6.85675161 3.99770973 5.71032809 3 4.5625 C2.443125 3.92441406 1.88625 3.28632813 1.3125 2.62890625 C0 1 0 1 0 0 Z " fill="#D49F15" transform="translate(230,475)"/>
<path d="M0 0 C0.90105469 0.00902344 1.80210937 0.01804687 2.73046875 0.02734375 C3.41753906 0.03894531 4.10460937 0.05054688 4.8125 0.0625 C0.74093521 2.0982824 -1.69874928 3.18415065 -6.3125 3.125 C-7.22257813 3.11597656 -8.13265625 3.10695313 -9.0703125 3.09765625 C-9.76898438 3.08605469 -10.46765625 3.07445312 -11.1875 3.0625 C-7.23784431 0.4293962 -4.63874115 -0.06024339 0 0 Z " fill="#F8BA1E" transform="translate(192.1875,457.9375)"/>
<path d="M0 0 C1.49838501 2.37978795 2.02556668 3.65911099 1.8125 6.5 C0.94257353 9.17669684 -0.27457774 10.80485362 -2 13 C-1.85915204 11.20793453 -1.71216299 9.41635083 -1.5625 7.625 C-1.48128906 6.62726563 -1.40007812 5.62953125 -1.31640625 4.6015625 C-1 2 -1 2 0 0 Z " fill="#B18C1E" transform="translate(322,372)"/>
<path d="M0 0 C0.66 0.33 1.32 0.66 2 1 C0.60667426 4.36720387 -0.9789286 5.9859524 -4 8 C-4 4 -4 4 -2 1.75 C-1.01 0.88375 -1.01 0.88375 0 0 Z " fill="#C07C1A" transform="translate(33,344)"/>
<path d="M0 0 C0 0.66 0 1.32 0 2 C-2.8125 4.6875 -2.8125 4.6875 -6 7 C-6.99 6.67 -7.98 6.34 -9 6 C-3.15384615 0 -3.15384615 0 0 0 Z " fill="#C87C17" transform="translate(44,338)"/>
<path d="M0 0 C0.66 0.33 1.32 0.66 2 1 C0.50902342 4.7952131 -1.75700849 6.61042731 -5 9 C-4.42647107 5.12867972 -2.51295648 2.91827204 0 0 Z " fill="#D69E1D" transform="translate(402,115)"/>
<path d="M0 0 C3.45925163 1.2491742 6.14693203 2.67527795 9 5 C8.67 5.99 8.34 6.98 8 8 C6.85073734 7.04578192 5.70569459 6.08647955 4.5625 5.125 C3.92441406 4.59132813 3.28632813 4.05765625 2.62890625 3.5078125 C1 2 1 2 0 0 Z " fill="#C47E0C" transform="translate(263,631)"/>
<path d="M0 0 C1.14926266 0.95421808 2.29430541 1.91352045 3.4375 2.875 C4.07558594 3.40867187 4.71367188 3.94234375 5.37109375 4.4921875 C7 6 7 6 8 8 C5.6875 7.8125 5.6875 7.8125 3 7 C0 2.96551724 0 2.96551724 0 0 Z " fill="#BE7518" transform="translate(567,515)"/>
<path d="M0 0 C0.66 0 1.32 0 2 0 C1.67 1.32 1.34 2.64 1 4 C0.34 3.34 -0.32 2.68 -1 2 C-0.67 1.34 -0.34 0.68 0 0 Z M-3 1 C-2.34 1.99 -1.68 2.98 -1 4 C-3.475 5.485 -3.475 5.485 -6 7 C-4.125 2.125 -4.125 2.125 -3 1 Z " fill="#D6A020" transform="translate(165,471)"/>
<path d="M0 0 C2 2 2 2 2.1953125 3.9453125 C2.13020833 5.96354167 2.06510417 7.98177083 2 10 C1.34 10 0.68 10 0 10 C-0.19412181 8.52168779 -0.38012131 7.04230684 -0.5625 5.5625 C-0.66691406 4.73878906 -0.77132813 3.91507812 -0.87890625 3.06640625 C-0.91886719 2.38449219 -0.95882813 1.70257813 -1 1 C-0.67 0.67 -0.34 0.34 0 0 Z " fill="#F5BE1E" transform="translate(289,389)"/>
<path d="M0 0 C1.04293785 3.38954801 1.30754089 6.46327974 1 10 C0.01 10.66 -0.98 11.32 -2 12 C-1.85831863 10.56208484 -1.71148957 9.1246763 -1.5625 7.6875 C-1.48128906 6.88699219 -1.40007813 6.08648437 -1.31640625 5.26171875 C-1 3 -1 3 0 0 Z " fill="#BE7D18" transform="translate(20,362)"/>
<path d="M0 0 C0.33 0.99 0.66 1.98 1 3 C-0.65 4.65 -2.3 6.3 -4 8 C-4.99 7.67 -5.98 7.34 -7 7 C-4.69 4.69 -2.38 2.38 0 0 Z " fill="#C89A1D" transform="translate(379,301)"/>
<path d="M0 0 C2.31 1.98 4.62 3.96 7 6 C6.34 6.66 5.68 7.32 5 8 C3.02 5.69 1.04 3.38 -1 1 C-0.67 0.67 -0.34 0.34 0 0 Z " fill="#D79013" transform="translate(492,441)"/>
<path d="M0 0 C-1.49097658 3.7952131 -3.75700849 5.61042731 -7 8 C-6.44414399 4.1090079 -4.34122117 0 0 0 Z " fill="#D09118" transform="translate(638,173)"/>
<path d="M0 0 C0.66 0.33 1.32 0.66 2 1 C1 4 1 4 -1.4375 5.75 C-2.7059375 6.36875 -2.7059375 6.36875 -4 7 C-4.66 6.67 -5.32 6.34 -6 6 C-4.02 4.02 -2.04 2.04 0 0 Z " fill="#B78F24" transform="translate(647,28)"/>
<path d="M0 0 C0.66 0.66 1.32 1.32 2 2 C1.67 2.66 1.34 3.32 1 4 C1.99 4.33 2.98 4.66 4 5 C4 6.65 4 8.3 4 10 C0.9083091 7.47043472 0.09068668 4.77545388 -1 1 C-0.67 0.67 -0.34 0.34 0 0 Z " fill="#B47118" transform="translate(22,400)"/>
<path d="M0 0 C0.66 0.99 1.32 1.98 2 3 C0.75 4.5625 0.75 4.5625 -1 6 C-3.1875 5.6875 -3.1875 5.6875 -5 5 C-3.35 3.35 -1.7 1.7 0 0 Z " fill="#B98A1A" transform="translate(400,279)"/>
<path d="M0 0 C3.83736322 0.95934081 4.59660228 1.23609263 7 4 C6.67 4.99 6.34 5.98 6 7 C4.02 4.69 2.04 2.38 0 0 Z " fill="#CD7B0E" transform="translate(614,692)"/>
<path d="M0 0 C2.31 1.98 4.62 3.96 7 6 C6.34 6.66 5.68 7.32 5 8 C3.5 6.625 3.5 6.625 2 5 C2 4.34 2 3.68 2 3 C1.34 3 0.68 3 0 3 C0 2.01 0 1.02 0 0 Z " fill="#CD7911" transform="translate(664,611)"/>
<path d="M0 0 C2.31 1.98 4.62 3.96 7 6 C6.34 6.66 5.68 7.32 5 8 C5 7.34 5 6.68 5 6 C4.360625 5.7525 3.72125 5.505 3.0625 5.25 C1 4 1 4 0 0 Z " fill="#DCA414" transform="translate(248,491)"/>
<path d="M0 0 C2.31 1.98 4.62 3.96 7 6 C6.01 6.33 5.02 6.66 4 7 C2 5.1875 2 5.1875 0 3 C0 2.01 0 1.02 0 0 Z " fill="#D18D17" transform="translate(485,434)"/>
<path d="M0 0 C0.99 0 1.98 0 3 0 C2.34 1.32 1.68 2.64 1 4 C0.01 4 -0.98 4 -2 4 C-2 4.66 -2 5.32 -2 6 C-2.66 5.67 -3.32 5.34 -4 5 C-2.1875 2.5 -2.1875 2.5 0 0 Z " fill="#BC8F1B" transform="translate(392,287)"/>
<path d="M0 0 C0 3.16880694 -0.2058242 4.43689172 -2 7 C-4.625 7.75 -4.625 7.75 -7 8 C-6.02133662 6.85373678 -5.04205413 5.70800212 -4.0625 4.5625 C-3.51722656 3.92441406 -2.97195313 3.28632812 -2.41015625 2.62890625 C-1.63204305 1.73008851 -0.84063472 0.84063472 0 0 Z " fill="#916E22" transform="translate(624,51)"/>
<path d="M0 0 C0 2.83967231 -0.40267181 5.23735711 -1 8 C-2.32 7.01 -3.64 6.02 -5 5 C-3.35 3.35 -1.7 1.7 0 0 Z " fill="#B38826" transform="translate(635,40)"/>
<path d="M0 0 C5.75 3.625 5.75 3.625 8 7 C6.0625 6.6875 6.0625 6.6875 4 6 C3.67 5.01 3.34 4.02 3 3 C2.01 3 1.02 3 0 3 C0 2.01 0 1.02 0 0 Z " fill="#BE9024" transform="translate(708,22)"/>
<path d="M0 0 C1.98 1.65 3.96 3.3 6 5 C4.125 5.625 4.125 5.625 2 6 C1.34 5.34 0.68 4.68 0 4 C0 2.68 0 1.36 0 0 Z " fill="#A76214" transform="translate(634,581)"/>
<path d="M0 0 C0.75 1.75 0.75 1.75 1 4 C-0.9375 6.25 -0.9375 6.25 -3 8 C-3 4.42424104 -1.91159393 2.94704065 0 0 Z " fill="#C79F21" transform="translate(327,363)"/>
<path d="M0 0 C0.66 1.32 1.32 2.64 2 4 C0.625 5.5 0.625 5.5 -1 7 C-1.66 7 -2.32 7 -3 7 C-1.125 1.125 -1.125 1.125 0 0 Z " fill="#BC7717" transform="translate(24,355)"/>
</svg>
